<svg width="32" height="32" viewBox="0 0 48 48" fill="none" xmlns="http://www.w3.org/2000/svg"><rect width="48" height="48" rx="24" fill="#fff" fill-opacity=".1"/><path d="M5 22.914h2.807C8.311 20.191 10.634 18 13.595 18c3.369 0 5.73 2.448 5.73 6.138 0 .394-.038.71-.077.987h-9.06c.426 1.677 1.781 2.664 3.407 2.664 1.394 0 2.439-.552 3.272-1.519l1.665 1.559C17.428 29.11 15.782 30 13.595 30c-2.962 0-5.285-2.151-5.788-4.875H5v-2.21Zm11.925 0c-.117-.69-.426-1.322-.871-1.776-.58-.592-1.433-.967-2.458-.967-1.026 0-1.859.356-2.478.987a3.726 3.726 0 0 0-.949 1.757h6.756Zm4.084-4.835h2.44v9.473h4.413v2.369h-4.375c-1.607 0-2.478-.888-2.478-2.526v-9.316ZM28.327 24c0-3.217 2.574-6 5.981-6 3.02 0 5.382 2.172 5.885 4.915H43v2.21h-2.807C39.67 27.85 37.308 30 34.308 30c-3.426 0-5.981-2.763-5.981-6Zm5.981 3.67c2.033 0 3.543-1.578 3.543-3.65s-1.549-3.691-3.543-3.691c-1.993 0-3.542 1.578-3.542 3.67 0 2.093 1.548 3.671 3.542 3.671Z" fill="#003933"/></svg>